<svg xmlns="http://www.w3.org/2000/svg" data-name="Ebene 2" viewBox="0 0 95 118.75" x="0px" y="0px" fill="#ffffff"><title>facility-icon</title><path d="M68.32,47.19A20.85,20.85,0,0,0,47.55,26.67h0a20.83,20.83,0,0,0,0,41.67h0A20.85,20.85,0,0,0,68.31,48a2.69,2.69,0,0,0,0-.48A1.41,1.41,0,0,0,68.32,47.19Zm-2.78.31h0c-0.31.73-2.74,1.8-7,2.56,0.05-.84.09-1.7,0.09-2.57,0-6.93-1.73-13-4.44-16.72A18.05,18.05,0,0,1,65.53,47.5Zm-18,18h0c-3.25,0-6.67-4.72-7.88-12.19a76.18,76.18,0,0,0,7.89.42,76.18,76.18,0,0,0,7.89-.42C54.2,60.81,50.78,65.51,47.54,65.53Zm0-14.57a69.14,69.14,0,0,1-8.22-.47c-0.08-1-.13-2-0.13-3,0-10.78,4.31-18,8.34-18h0c4,0,8.33,7.26,8.33,18,0,1-.05,2-0.13,3A69,69,0,0,1,47.52,51Zm-6.69-20.2c-2.71,3.77-4.45,9.8-4.45,16.74,0,0.87,0,1.73.09,2.57-4.3-.77-6.75-1.86-7-2.57,0,0,0-.09,0-0.14A18,18,0,0,1,40.83,30.76Zm-11,20.31A27,27,0,0,0,36.76,53a25.62,25.62,0,0,0,4.07,11.27A18.09,18.09,0,0,1,29.83,51.08Zm24.4,13.14A25.65,25.65,0,0,0,58.28,53a27.18,27.18,0,0,0,6.89-1.87A18.09,18.09,0,0,1,54.23,64.22Z"/><path d="M70.69,27.84a3.24,3.24,0,0,0-3-2.26,3.93,3.93,0,0,1,2-1.56,1.4,1.4,0,0,0-1-2.63,6.76,6.76,0,0,0-4.17,8.38h0a3.24,3.24,0,0,0,6.19-1.92h0Z"/><path d="M76.93,25.94a3.22,3.22,0,0,0-1.45-.36,3.93,3.93,0,0,1,2-1.56,1.4,1.4,0,0,0-1-2.63,6.76,6.76,0,0,0-4.17,8.38,3.25,3.25,0,0,0,3.09,2.28,3.25,3.25,0,0,0,3.1-4.21A3.22,3.22,0,0,0,76.93,25.94Z"/><path d="M25.43,71.12a1.4,1.4,0,1,0,1,2.63,6.76,6.76,0,0,0,4.17-8.38,1.41,1.41,0,0,0-.11-0.26,3.24,3.24,0,1,0-3.05,4.46A3.94,3.94,0,0,1,25.43,71.12Z"/><path d="M22.71,65.37a3.25,3.25,0,1,0-3.17,4.2,3.94,3.94,0,0,1-2,1.55,1.4,1.4,0,1,0,1,2.63A6.76,6.76,0,0,0,22.71,65.37Z"/></svg>
