<svg xmlns="http://www.w3.org/2000/svg" xmlns:xlink="http://www.w3.org/1999/xlink" version="1.1" x="0px" y="0px" viewBox="0 0 100 125" enable-background="new 0 0 100 100" xml:space="preserve"><path fill="#ffffff" d="M95.275,34.208H4.266c-0.648,0-1.174,0.525-1.174,1.173v25.387c0,0.646,0.523,1.171,1.174,1.171h4.656v1.662  c0,0.648,0.525,1.174,1.174,1.174h3.457c0.646,0,1.174-0.523,1.174-1.174v-1.662h69.973v1.662c0,0.648,0.525,1.174,1.172,1.174  h3.459c0.648,0,1.174-0.523,1.174-1.174v-1.662h4.771c0.646,0,1.174-0.525,1.174-1.171V35.381  C96.449,34.733,95.924,34.208,95.275,34.208z M12.381,62.429H11.27v-0.412h1.111V62.429z M88.158,62.429h-1.115v-0.412h1.115V62.429  z M94.104,59.594H5.439v-2.845h88.664V59.594z M18.316,52.507v-1.984h62.908v1.984H18.316z M94.104,54.405h-5.859v-9.166  c0-0.646-0.523-1.172-1.172-1.172H71.99c-0.646,0-1.174,0.525-1.174,1.172v1.236c0,0.645,0.525,1.172,1.174,1.172  s1.174-0.527,1.174-1.172v-0.062h12.734v7.992h-2.58c0.158-0.201,0.252-0.451,0.252-0.725v-4.329c0-0.647-0.523-1.174-1.172-1.174  H50.943v-1.413c0-0.648-0.523-1.174-1.172-1.174s-1.174,0.523-1.174,1.174v1.413H17.145c-0.648,0-1.174,0.524-1.174,1.174v4.329  c0,0.273,0.094,0.523,0.252,0.725H5.439V36.554h88.664V54.405z"/></svg>
