<svg xmlns="http://www.w3.org/2000/svg" xmlns:xlink="http://www.w3.org/1999/xlink" version="1.1" x="0px" y="0px" viewBox="0 0 100 125" style="enable-background:new 0 0 100 100;" xml:space="preserve"><g><path d="M85.9,59.16c0-18.52-10.34-22.45-21.45-23.18v-6.94H24.15l3.15,6.73v46.71v8.71v1.52c0,1.91,1.55,3.46,3.46,3.46h30.23   c1.91,0,3.46-1.55,3.46-3.46V91.2v-8.71v-0.15C75.56,81.61,85.9,77.67,85.9,59.16z M59.19,82.49h-0.04H32.56V35.78v-1.17   l-0.14-0.31h26.77v1.53c-0.01,0-0.03,0-0.04,0v46.66C59.16,82.49,59.18,82.49,59.19,82.49L59.19,82.49z M64.45,77.06V41.25   c10.75,0.79,16.2,4.65,16.2,17.9C80.64,72.41,75.19,76.27,64.45,77.06z"/><g><path d="M56.56,16.38H35.42c-4.36,0-7.89,3.53-7.89,7.89v1.56h36.91v-1.56C64.45,19.91,60.91,16.38,56.56,16.38z"/></g><path d="M47.25,77.61V11.09c1.4-0.55,2.39-1.91,2.39-3.5c0-2.08-1.69-3.77-3.77-3.77c-2.08,0-3.77,1.69-3.77,3.77   c0,1.64,1.05,3.02,2.52,3.54v66.49h-8.91v2.63h20.33v-2.63H47.25z"/></g>
</svg>
